<svg xmlns="http://www.w3.org/2000/svg" id="Livello_1" viewBox="0 0 67 60"><defs><style>      .st0 {        fill: #fff;      }    </style></defs><path class="st0" d="M33.4,18c1.6,0,3-.8,4.2-2.2,1-1.3,1.7-2.9,1.7-4.4,0-3.1-2.5-5.4-5.8-5.4s-5.8,2.3-5.8,5.4.6,3.1,1.7,4.4c1.1,1.4,2.6,2.2,4.2,2.2ZM33.4,7.7c2.4,0,4.1,1.6,4.1,3.7s-2.3,4.9-4.1,4.9-4.1-2.7-4.1-4.9,1.7-3.7,4.1-3.7Z"></path><path class="st0" d="M26.5,25.9l-.6,8.3c0,.1,0,.2,0,.3,0,.1,0,.2.2.3,0,0,.2.1.3.2,0,0,.2,0,.3,0h0c.2,0,.4,0,.6-.2.2-.1.3-.3.3-.5l.6-8.3c0-.1,0-.2,0-.3,0-.1,0-.2-.2-.3,0,0-.2-.1-.3-.2,0,0-.2,0-.3,0-.1,0-.2,0-.3,0-.1,0-.2,0-.3.2,0,0-.2.2-.2.3s0,.2,0,.3h0Z"></path><path class="st0" d="M44.9,35.1c.2,0,.4-.1.6-.3.1-.2.2-.4.2-.6,0,0-.9-6.3-1-8.4-.2-3.8-2.6-6.8-6.3-7.4-1.3-.2-3.7-.3-4.9-.3-1.7,0-3.4.1-5,.3-1.7.2-3.3,1.1-4.5,2.4-1.2,1.4-1.7,3.1-1.8,5-.1,2.1-.9,8.4-.9,8.4,0,.1,0,.2,0,.3,0,.1,0,.2.2.3,0,0,.2.2.3.2,0,0,.2,0,.3,0,.1,0,.2,0,.3,0,.1,0,.2,0,.3-.2s.2-.2.2-.3c0,0,0-.2,0-.3,0,0,.8-6.4.9-8.5.2-3,2-5.5,4.8-5.8,1.6-.2,3.2-.3,4.8-.3,1.1,0,3.4.1,4.6.3,1.3.2,2.5.8,3.4,1.8.9,1.1,1.3,2.5,1.4,4,.1,2.1,1,8.5,1,8.5,0,.2.1.4.3.5.2.1.4.2.6.2Z"></path><path class="st0" d="M39.4,25.2c-.1,0-.2,0-.3,0,0,0-.2.1-.3.2,0,0-.1.2-.2.3,0,.1,0,.2,0,.3l.6,8.3c0,.2.1.4.3.5.2.1.4.2.6.2h0c.2,0,.4-.1.6-.3.1-.2.2-.4.2-.6l-.6-8.3c0-.1,0-.2,0-.3,0,0-.1-.2-.2-.3,0,0-.2-.1-.3-.2-.1,0-.2,0-.3,0Z"></path><path class="st0" d="M38.8,42.7l4.1-3.9c.1-.1.2-.2.2-.4,0-.2,0-.3,0-.5,0-.1-.1-.3-.3-.4-.1,0-.3-.2-.4-.2l-5.6-.8-2.5-5c0-.1-.2-.3-.3-.3-.1,0-.3-.1-.4-.1s-.3,0-.4.1c-.1,0-.2.2-.3.3l-2.5,5-5.6.8c-.2,0-.3,0-.4.2-.1,0-.2.2-.3.4,0,.1,0,.3,0,.5,0,.2.1.3.2.4l4.1,3.9-1,5.5c0,.2,0,.3,0,.5,0,.1.2.3.3.4.1,0,.3.1.4.2s.3,0,.5,0l5-2.6,5,2.6c.1,0,.3,0,.4,0,.1,0,.2,0,.4,0,.1,0,.2-.1.3-.2,0,0,.1-.2.2-.3,0-.1,0-.2,0-.4l-1-5.5ZM33.1,44.8c-1,.5-3.9,2-3.9,2l.7-4.3c0-.1,0-.3,0-.4,0-.1-.1-.2-.2-.3l-3.2-3,4.4-.6c.1,0,.3,0,.4-.2.1,0,.2-.2.3-.3l2-3.9,2,3.9c0,.1.2.2.3.3.1,0,.2.1.4.2l4.4.6-3.2,3c0,0-.2.2-.2.3,0,.1,0,.3,0,.4l.7,4.3s-2.9-1.5-3.9-2c-.1,0-.3,0-.4,0s-.3,0-.4,0Z"></path><path class="st0" d="M56.8,39.9l-4.1-.6-1.8-3.7c0-.1-.2-.3-.3-.3-.1,0-.3-.1-.4-.1s-.3,0-.4.1c-.1,0-.2.2-.3.3l-1.8,3.7-4.1.6c-.2,0-.3,0-.4.2-.1,0-.2.2-.3.4,0,.1,0,.3,0,.5,0,.2.1.3.2.4l3,2.8-.7,4c0,.2,0,.3,0,.5,0,.1.2.3.3.4.1,0,.3.1.4.2s.3,0,.5,0l3.7-1.9,3.7,1.9c.1,0,.3,0,.4,0,.1,0,.2,0,.4,0,.1,0,.2-.1.3-.2,0,0,.1-.2.2-.3,0-.1,0-.2,0-.4l-.7-4,3-2.8c.1-.1.2-.2.2-.4,0-.2,0-.3,0-.5,0-.1-.1-.3-.3-.4-.1,0-.3-.2-.4-.2h0ZM49.7,45.5c-.6.3-2.6,1.3-2.6,1.3l.5-2.8c0-.1,0-.3,0-.4,0-.1-.1-.2-.2-.3l-2.1-2,2.9-.4c.1,0,.3,0,.4-.2.1,0,.2-.2.3-.3l1.3-2.5,1.3,2.5c0,.1.2.2.3.3.1,0,.2.1.4.2l2.9.4-2.1,2c0,0-.2.2-.2.3,0,.1,0,.3,0,.4l.5,2.8s-1.9-1-2.6-1.3c-.1,0-.3,0-.4,0s-.3,0-.4,0Z"></path><path class="st0" d="M65,46.7l-2.8-.4-1.2-2.5c0,0-.1-.2-.2-.2,0,0-.2,0-.3,0s-.2,0-.3,0c0,0-.2.1-.2.2l-1.2,2.5-2.8.4c-.1,0-.2,0-.3.1,0,0-.1.2-.2.3,0,0,0,.2,0,.3,0,.1,0,.2.2.3l2,1.9-.5,2.7c0,.1,0,.2,0,.3,0,0,.1.2.2.2,0,0,.2,0,.3.1s.2,0,.3,0l2.5-1.3,2.5,1.3c0,0,.2,0,.3,0,0,0,.2,0,.2,0,0,0,.1,0,.2-.1,0,0,0-.1.1-.2,0,0,0-.2,0-.2l-.5-2.7,2-1.9c0,0,.1-.2.2-.3,0-.1,0-.2,0-.3,0,0,0-.2-.2-.3,0,0-.2-.1-.3-.1h0ZM60.2,50.4c-.4.2-1.7.9-1.7.9l.3-1.9c0,0,0-.2,0-.3,0,0,0-.2-.1-.2l-1.4-1.3,1.9-.3c0,0,.2,0,.3-.1,0,0,.1-.1.2-.2l.9-1.7.9,1.7c0,0,.1.2.2.2,0,0,.2,0,.3.1l1.9.3-1.4,1.3c0,0-.1.1-.1.2,0,0,0,.2,0,.3l.3,1.9s-1.3-.7-1.7-.9c0,0-.2,0-.3,0s-.2,0-.3,0Z"></path><path class="st0" d="M10.7,46.8l-2.8-.4-1.2-2.5c0,0-.1-.2-.2-.2,0,0-.2,0-.3,0s-.2,0-.3,0c0,0-.2.1-.2.2l-1.2,2.5-2.8.4c-.1,0-.2,0-.3.1,0,0-.1.2-.2.3,0,0,0,.2,0,.3,0,.1,0,.2.2.3l2,1.9-.5,2.7c0,.1,0,.2,0,.3,0,0,.1.2.2.2,0,0,.2,0,.3.1s.2,0,.3,0l2.5-1.3,2.5,1.3c0,0,.2,0,.3,0,0,0,.2,0,.2,0,0,0,.1,0,.2-.1,0,0,0-.1.1-.2,0,0,0-.2,0-.2l-.5-2.7,2-1.9c0,0,.1-.2.2-.3,0-.1,0-.2,0-.3,0,0,0-.2-.2-.3,0,0-.2-.1-.3-.1h0ZM5.9,50.6c-.4.2-1.7.9-1.7.9l.3-1.9c0,0,0-.2,0-.3,0,0,0-.2-.1-.2l-1.4-1.3,1.9-.3c0,0,.2,0,.3-.1,0,0,.1-.1.2-.2l.9-1.7.9,1.7c0,0,.1.2.2.2,0,0,.2,0,.3.1l1.9.3-1.4,1.3c0,0-.1.1-.1.2,0,0,0,.2,0,.3l.3,1.9s-1.3-.7-1.7-.9c0,0-.2,0-.3,0s-.2,0-.3,0Z"></path><path class="st0" d="M23.7,39.9l-4.1-.6-1.8-3.7c0-.1-.2-.3-.3-.3-.1,0-.3-.1-.4-.1s-.3,0-.4.1-.2.2-.3.3l-1.8,3.7-4.1.6c-.2,0-.3,0-.4.2-.1,0-.2.2-.3.4,0,.1,0,.3,0,.5,0,.2.1.3.2.4l3,2.8-.7,4c0,.2,0,.3,0,.5,0,.1.2.3.3.4.1,0,.3.1.4.2s.3,0,.5,0l3.7-1.9,3.7,1.9c.1,0,.3,0,.4,0,.1,0,.2,0,.4,0,.1,0,.2-.1.3-.2,0,0,.1-.2.2-.3,0-.1,0-.2,0-.4l-.7-4,3-2.8c.1-.1.2-.2.2-.4,0-.2,0-.3,0-.5,0-.1-.1-.3-.3-.4-.1,0-.3-.2-.4-.2h0ZM16.6,45.5l-2.6,1.3.5-2.8c0-.1,0-.3,0-.4s-.1-.2-.2-.3l-2.1-2,2.9-.4c.1,0,.3,0,.4-.2.1,0,.2-.2.3-.3l1.3-2.5,1.3,2.5c0,.1.2.2.3.3.1,0,.2.1.4.2l2.9.4-2.1,2c0,0-.2.2-.2.3,0,.1,0,.3,0,.4l.5,2.8-2.6-1.3c-.1,0-.3-.1-.4-.1s-.3,0-.4.1Z"></path></svg>