<svg xmlns="http://www.w3.org/2000/svg" id="Livello_1" viewBox="0 0 1600 1600"><defs><style>      .st0 {        fill: #fff;      }    </style></defs><path class="st0" d="M72.06,1537.94c-5.52,0-10-4.48-10-10V72.06c0-5.52,4.48-10,10-10h750.26c3,0,5.84,1.35,7.74,3.67,1.9,2.32,2.66,5.38,2.06,8.32-.19.94-.29,1.9-.29,2.86v247.69c0,7.87,6.4,14.26,14.26,14.26h681.83c5.52,0,10,4.48,10,10v1179.07c0,5.52-4.48,10-10,10H72.06Z"></path><path class="st0" d="M822.33,72.06c-.32,1.57-.49,3.19-.49,4.85v247.69c0,13.4,10.86,24.26,24.26,24.26h681.83v1179.07H72.06V72.06h750.26M822.33,52.06H72.06c-11.05,0-20,8.95-20,20v1455.87c0,11.05,8.95,20,20,20h1455.87c11.05,0,20-8.95,20-20V348.87c0-11.05-8.95-20-20-20h-681.83c-2.35,0-4.26-1.91-4.26-4.26V76.92c0-.3.03-.58.09-.87,1.19-5.88-.32-11.99-4.11-16.64-3.8-4.65-9.48-7.34-15.49-7.34h0ZM822.33,92.06h0,0Z"></path></svg>