<svg xmlns="http://www.w3.org/2000/svg" id="Livello_1" viewBox="0 0 1200 1200"><defs><style>      .st0 {        fill: #fff;      }    </style></defs><path class="st0" d="M37.6,1172.39c-5.52,0-10-4.48-10-10V37.6c0-5.52,4.48-10,10-10h579.64c3,0,5.84,1.35,7.74,3.67,1.9,2.32,2.65,5.38,2.06,8.32-.12.58-.18,1.17-.18,1.76v191.36c0,4.82,3.92,8.75,8.75,8.75h526.78c5.52,0,10,4.48,10,10v910.93c0,5.52-4.48,10-10,10H37.6Z"></path><path class="st0" d="M617.24,37.6c-.25,1.21-.38,2.47-.38,3.75v191.36c0,10.35,8.39,18.75,18.75,18.75h526.78v910.93H37.6V37.6h579.64M617.24,17.6H37.6c-11.05,0-20,8.95-20,20v1124.79c0,11.05,8.95,20,20,20h1124.79c11.05,0,20-8.95,20-20V251.46c0-11.05-8.95-20-20-20h-525.52V41.46c1.15-5.85-.37-11.9-4.14-16.52-3.8-4.65-9.48-7.34-15.49-7.34h0ZM617.24,57.6h0,0Z"></path></svg>